<svg width="198" height="106" viewBox="0 0 198 106" fill="none" xmlns="http://www.w3.org/2000/svg">
<path d="M30.0234 91.4844C21.4453 91.4844 15.5859 91.4141 12.4453 91.2734L10.4062 96.125C9.79688 97.4844 9.23438 98.9141 8.71875 100.414C7.64062 103.32 6.14062 104.773 4.21875 104.773C3.32812 104.773 2.60156 104.492 2.03906 103.93C1.47656 103.367 1.19531 102.781 1.19531 102.172C1.19531 101.141 1.64062 99.9922 2.53125 98.7266C3.9375 96.7578 5.32031 94.1797 6.67969 90.9922C2.64844 90.6172 0.632812 89.4453 0.632812 87.4766C0.632812 85.5078 1.78125 84.5234 4.07812 84.5234C5.48438 84.5234 7.125 84.7578 9 85.2266L44.0859 0.0078125L92.1797 104H55.5469L49.7109 91.4844H30.0234ZM14.6953 85.7891C19.1953 86.1641 23.2266 86.3516 26.7891 86.3516H47.3906L29.8125 48.4531L14.6953 85.7891ZM155.18 69.8984L160.945 70.3203C169.195 70.3203 176.203 67.4375 181.969 61.6719C187.734 55.9062 190.617 48.7344 190.617 40.1562C190.617 28.9062 185.672 20.5625 175.781 15.125C170.344 12.125 164.531 10.3906 158.344 9.92188C155.719 9.6875 153.281 9.57031 151.031 9.57031H146.25C145.266 9.57031 144.398 9.59375 143.648 9.64062V104H107.789V4.50781C118.758 4.50781 127.641 4.50781 134.438 4.50781C141.234 4.50781 145.664 4.53125 147.727 4.57812C149.789 4.625 151.617 4.69531 153.211 4.78906C154.852 4.83594 156.375 4.90625 157.781 5C159.844 5.1875 162.75 5.63281 166.5 6.33594C170.297 7.03906 174.047 8.375 177.75 10.3438C181.453 12.3125 184.641 14.75 187.312 17.6562C193.078 23.8438 195.961 31.2031 195.961 39.7344C195.961 48.1719 193.289 55.625 187.945 62.0938C182.461 68.7031 175.148 72.9688 166.008 74.8906C170.367 88.3906 175.922 96.4531 182.672 99.0781C184.734 99.875 186.797 100.273 188.859 100.273L194.414 98.9375C196.148 98.9375 197.016 99.8281 197.016 101.609C197.016 104.094 194.109 105.336 188.297 105.336C184.078 105.336 180.211 104.164 176.695 101.82C171.211 98.5391 166.547 92.1641 162.703 82.6953L160.664 77.7031C160.336 76.9062 160.031 76.4141 159.75 76.2266C159.516 76.0391 159.07 75.9453 158.414 75.9453C157.805 75.9453 157.266 75.9922 156.797 76.0859L155.109 76.1562C153.234 76.1562 151.945 75.8047 151.242 75.1016C150.586 74.3984 150.258 73.6719 150.258 72.9219C150.258 70.9062 151.898 69.8984 155.18 69.8984Z" fill="#D990C2"/>
</svg>
