<svg width="99" height="53" viewBox="0 0 99 53" fill="none" xmlns="http://www.w3.org/2000/svg">
<path d="M15.0117 45.7422C10.7227 45.7422 7.79297 45.707 6.22266 45.6367L5.20312 48.0625C4.89844 48.7422 4.61719 49.457 4.35938 50.207C3.82031 51.6602 3.07031 52.3867 2.10938 52.3867C1.66406 52.3867 1.30078 52.2461 1.01953 51.9648C0.738281 51.6836 0.597656 51.3906 0.597656 51.0859C0.597656 50.5703 0.820312 49.9961 1.26562 49.3633C1.96875 48.3789 2.66016 47.0898 3.33984 45.4961C1.32422 45.3086 0.316406 44.7227 0.316406 43.7383C0.316406 42.7539 0.890625 42.2617 2.03906 42.2617C2.74219 42.2617 3.5625 42.3789 4.5 42.6133L22.043 0.00390625L46.0898 52H27.7734L24.8555 45.7422H15.0117ZM7.34766 42.8945C9.59766 43.082 11.6133 43.1758 13.3945 43.1758H23.6953L14.9062 24.2266L7.34766 42.8945ZM77.5898 34.9492L80.4727 35.1602C84.5977 35.1602 88.1016 33.7188 90.9844 30.8359C93.8672 27.9531 95.3086 24.3672 95.3086 20.0781C95.3086 14.4531 92.8359 10.2812 87.8906 7.5625C85.1719 6.0625 82.2656 5.19531 79.1719 4.96094C77.8594 4.84375 76.6406 4.78516 75.5156 4.78516H73.125C72.6328 4.78516 72.1992 4.79687 71.8242 4.82031V52H53.8945V2.25391C59.3789 2.25391 63.8203 2.25391 67.2188 2.25391C70.6172 2.25391 72.832 2.26562 73.8633 2.28906C74.8945 2.3125 75.8086 2.34766 76.6055 2.39453C77.4258 2.41797 78.1875 2.45313 78.8906 2.5C79.9219 2.59375 81.375 2.81641 83.25 3.16797C85.1484 3.51953 87.0234 4.1875 88.875 5.17188C90.7266 6.15625 92.3203 7.375 93.6562 8.82812C96.5391 11.9219 97.9805 15.6016 97.9805 19.8672C97.9805 24.0859 96.6445 27.8125 93.9727 31.0469C91.2305 34.3516 87.5742 36.4844 83.0039 37.4453C85.1836 44.1953 87.9609 48.2266 91.3359 49.5391C92.3672 49.9375 93.3984 50.1367 94.4297 50.1367L97.207 49.4688C98.0742 49.4688 98.5078 49.9141 98.5078 50.8047C98.5078 52.0469 97.0547 52.668 94.1484 52.668C92.0391 52.668 90.1055 52.082 88.3477 50.9102C85.6055 49.2695 83.2734 46.082 81.3516 41.3477L80.332 38.8516C80.168 38.4531 80.0156 38.207 79.875 38.1133C79.7578 38.0195 79.5352 37.9727 79.207 37.9727C78.9023 37.9727 78.6328 37.9961 78.3984 38.043L77.5547 38.0781C76.6172 38.0781 75.9727 37.9023 75.6211 37.5508C75.293 37.1992 75.1289 36.8359 75.1289 36.4609C75.1289 35.4531 75.9492 34.9492 77.5898 34.9492Z" fill="#D990C2"/>
</svg>
